<svg width="11" height="12" viewBox="0 0 11 12" fill="none" xmlns="http://www.w3.org/2000/svg">
<g id="Group 104">
<path id="Vector" d="M9.42862 7.71428H5.92719L7.03291 6.60429L6.42862 6L4.28577 8.14286L6.42862 10.2857L7.03291 9.68143L5.92719 8.57143H9.42862V12H10.2858V8.57143C10.2858 8.3441 10.1955 8.12608 10.0347 7.96534C9.87397 7.80459 9.65595 7.71428 9.42862 7.71428Z" fill="white"/>
<path id="Vector_2" d="M8.44714 3.12429L5.44714 0.124293C5.40709 0.0845722 5.3596 0.0531471 5.30739 0.0318195C5.25517 0.0104918 5.19926 -0.000318934 5.14285 7.16326e-06H0.857142C0.629814 7.16326e-06 0.411796 0.0903129 0.251051 0.251058C0.0903058 0.411804 0 0.629821 0 0.857149V11.1429C0 11.3702 0.0903058 11.5882 0.251051 11.7489C0.411796 11.9097 0.629814 12 0.857142 12H4.28571V11.1429H0.857142V0.857149H4.28571V3.42858C4.28571 3.65591 4.37602 3.87392 4.53676 4.03467C4.69751 4.19541 4.91553 4.28572 5.14285 4.28572H7.71428V5.14286H8.57142V3.42858C8.57175 3.37217 8.56094 3.31626 8.53961 3.26405C8.51828 3.21183 8.48686 3.16434 8.44714 3.12429ZM5.14285 1.03286L7.53857 3.42858H5.14285V1.03286Z" fill="white"/>
</g>
</svg>
