<svg width="49" height="37" viewBox="0 0 49 37" fill="none" xmlns="http://www.w3.org/2000/svg">
<path d="M41.0306 3.12676C37.9039 1.73709 34.6034 0.694836 31.1292 0H30.9555C30.6081 0.694836 30.087 1.73709 29.7395 2.60563C25.9179 2.08451 22.27 2.08451 18.6222 2.60563C18.2747 1.73709 17.7536 0.868545 17.4062 0H17.2325C13.7583 0.521127 10.4578 1.56338 7.33108 3.12676C1.07756 12.507 -0.659531 21.7136 0.209014 30.7465V30.9202C4.37803 34.0469 8.37333 35.784 12.3686 37H12.5423C13.4109 35.784 14.2794 34.3944 14.9743 33.0047V32.831C13.5846 32.3099 12.3686 31.7887 11.1527 31.0939C10.979 31.0939 10.979 30.9202 11.1527 30.9202C11.3264 30.7465 11.6738 30.5728 11.8475 30.3991H12.0212C20.0118 34.047 28.5236 34.047 36.5142 30.3991H36.6879C36.8616 30.5728 37.209 30.7465 37.3827 30.9202C37.5564 30.9202 37.3827 31.0939 37.3827 31.0939C36.1668 31.7887 34.9508 32.4836 33.5611 32.831C33.5611 32.831 33.3874 33.0047 33.5611 33.0047C34.256 34.3944 35.1245 35.784 35.9931 37H36.1668C40.1621 35.784 44.1574 33.8732 48.3264 30.9202V30.7465C49.3686 20.3239 46.5893 11.2911 41.0306 3.12676ZM16.1902 25.3615C13.7583 25.3615 11.8475 23.1033 11.8475 20.4977C11.8475 17.892 13.7583 15.6338 16.1902 15.6338C18.6222 15.6338 20.533 17.892 20.533 20.4977C20.533 23.1033 18.6222 25.3615 16.1902 25.3615ZM32.3452 25.3615C29.9132 25.3615 28.0024 23.1033 28.0024 20.4977C28.0024 17.892 29.9132 15.6338 32.3452 15.6338C34.7771 15.6338 36.6879 17.892 36.6879 20.4977C36.6879 23.1033 34.7771 25.3615 32.3452 25.3615Z" fill="#6E6E6E"/>
</svg>
