<svg width="153" height="51" viewBox="0 0 153 51" fill="none" xmlns="http://www.w3.org/2000/svg">
<path d="M20.3824 2.10333C20.9521 1.40511 21.8055 1 22.7067 1H130.677C131.589 1 132.451 1.41427 133.02 2.12592L150.22 23.6259C151.097 24.7216 151.097 26.2784 150.22 27.3741L133.02 48.8741C132.451 49.5857 131.589 50 130.678 50H22.7067C21.8055 50 20.9521 49.5949 20.3824 48.8967L2.83837 27.3967C1.93751 26.2927 1.93751 24.7073 2.83837 23.6033L20.3824 2.10333Z" fill="black" stroke="white" stroke-width="2"/>
<path d="M54.3612 24.642C54.3099 24.726 54.2562 24.789 54.2002 24.831C54.1442 24.8683 54.0742 24.887 53.9902 24.887C53.9016 24.887 53.8012 24.8497 53.6892 24.775C53.5819 24.7003 53.4466 24.6187 53.2832 24.53C53.1246 24.4367 52.9356 24.3527 52.7162 24.278C52.4969 24.1987 52.2356 24.159 51.9322 24.159C51.6522 24.159 51.4049 24.194 51.1902 24.264C50.9802 24.334 50.8029 24.432 50.6582 24.558C50.5136 24.684 50.4039 24.8333 50.3292 25.006C50.2592 25.174 50.2242 25.3583 50.2242 25.559C50.2242 25.8157 50.2919 26.0303 50.4272 26.203C50.5626 26.371 50.7399 26.5157 50.9592 26.637C51.1832 26.7583 51.4376 26.8657 51.7222 26.959C52.0069 27.0477 52.2962 27.1433 52.5902 27.246C52.8889 27.3487 53.1806 27.4653 53.4652 27.596C53.7499 27.7267 54.0019 27.8923 54.2212 28.093C54.4452 28.2937 54.6249 28.5387 54.7602 28.828C54.8956 29.1173 54.9632 29.4697 54.9632 29.885C54.9632 30.333 54.8862 30.753 54.7322 31.145C54.5782 31.537 54.3542 31.88 54.0602 32.174C53.7709 32.4633 53.4116 32.692 52.9822 32.86C52.5576 33.028 52.0722 33.112 51.5262 33.112C51.2042 33.112 50.8892 33.0793 50.5812 33.014C50.2779 32.9533 49.9862 32.867 49.7062 32.755C49.4309 32.6383 49.1719 32.4983 48.9292 32.335C48.6866 32.1717 48.4696 31.9897 48.2782 31.789L48.7542 31.005C48.7962 30.9397 48.8499 30.8883 48.9152 30.851C48.9806 30.8137 49.0529 30.795 49.1322 30.795C49.2396 30.795 49.3586 30.8463 49.4892 30.949C49.6199 31.047 49.7762 31.1567 49.9582 31.278C50.1449 31.3947 50.3689 31.5043 50.6302 31.607C50.8916 31.705 51.2042 31.754 51.5682 31.754C52.1609 31.754 52.6182 31.6093 52.9402 31.32C53.2669 31.0307 53.4302 30.6317 53.4302 30.123C53.4302 29.8383 53.3626 29.6073 53.2272 29.43C53.0919 29.248 52.9122 29.0963 52.6882 28.975C52.4689 28.8537 52.2169 28.751 51.9322 28.667C51.6476 28.583 51.3582 28.4943 51.0642 28.401C50.7702 28.303 50.4809 28.191 50.1962 28.065C49.9116 27.9343 49.6572 27.7663 49.4332 27.561C49.2139 27.351 49.0366 27.0943 48.9012 26.791C48.7659 26.483 48.6982 26.1003 48.6982 25.643C48.6982 25.279 48.7682 24.9267 48.9082 24.586C49.0529 24.2453 49.2606 23.9443 49.5312 23.683C49.8066 23.417 50.1449 23.2047 50.5462 23.046C50.9476 22.8873 51.4049 22.808 51.9182 22.808C52.4969 22.808 53.0266 22.899 53.5072 23.081C53.9926 23.263 54.4102 23.522 54.7602 23.858L54.3612 24.642ZM59.9325 25.748C60.4598 25.748 60.9358 25.8343 61.3605 26.007C61.7898 26.1797 62.1538 26.4247 62.4525 26.742C62.7558 27.0593 62.9891 27.4443 63.1525 27.897C63.3158 28.3497 63.3975 28.8583 63.3975 29.423C63.3975 29.9877 63.3158 30.4963 63.1525 30.949C62.9891 31.4017 62.7558 31.789 62.4525 32.111C62.1538 32.4283 61.7898 32.6733 61.3605 32.846C60.9358 33.0187 60.4598 33.105 59.9325 33.105C59.4005 33.105 58.9198 33.0187 58.4905 32.846C58.0658 32.6733 57.7018 32.4283 57.3985 32.111C57.0951 31.789 56.8618 31.4017 56.6985 30.949C56.5351 30.4963 56.4535 29.9877 56.4535 29.423C56.4535 28.8583 56.5351 28.3497 56.6985 27.897C56.8618 27.4443 57.0951 27.0593 57.3985 26.742C57.7018 26.4247 58.0658 26.1797 58.4905 26.007C58.9198 25.8343 59.4005 25.748 59.9325 25.748ZM59.9325 31.929C60.5765 31.929 61.0548 31.7143 61.3675 31.285C61.6848 30.851 61.8435 30.2327 61.8435 29.43C61.8435 28.6273 61.6848 28.009 61.3675 27.575C61.0548 27.1363 60.5765 26.917 59.9325 26.917C59.2791 26.917 58.7938 27.1363 58.4765 27.575C58.1591 28.009 58.0005 28.6273 58.0005 29.43C58.0005 30.2327 58.1591 30.851 58.4765 31.285C58.7938 31.7143 59.2791 31.929 59.9325 31.929ZM66.6845 27.183C66.9085 26.7303 67.1792 26.3757 67.4965 26.119C67.8139 25.8577 68.1942 25.727 68.6375 25.727C68.7915 25.727 68.9362 25.7457 69.0715 25.783C69.2069 25.8157 69.3282 25.867 69.4355 25.937L69.3305 27.071C69.3119 27.1503 69.2815 27.2063 69.2395 27.239C69.2022 27.267 69.1509 27.281 69.0855 27.281C69.0155 27.281 68.9152 27.2693 68.7845 27.246C68.6539 27.218 68.5162 27.204 68.3715 27.204C68.1615 27.204 67.9749 27.2343 67.8115 27.295C67.6529 27.3557 67.5082 27.4443 67.3775 27.561C67.2515 27.6777 67.1395 27.82 67.0415 27.988C66.9435 28.156 66.8525 28.3473 66.7685 28.562V33H65.2635V25.86H66.1385C66.2972 25.86 66.4069 25.8903 66.4675 25.951C66.5282 26.007 66.5702 26.1073 66.5935 26.252L66.6845 27.183ZM73.6924 25.748C74.2197 25.748 74.6957 25.8343 75.1204 26.007C75.5497 26.1797 75.9137 26.4247 76.2124 26.742C76.5157 27.0593 76.7491 27.4443 76.9124 27.897C77.0757 28.3497 77.1574 28.8583 77.1574 29.423C77.1574 29.9877 77.0757 30.4963 76.9124 30.949C76.7491 31.4017 76.5157 31.789 76.2124 32.111C75.9137 32.4283 75.5497 32.6733 75.1204 32.846C74.6957 33.0187 74.2197 33.105 73.6924 33.105C73.1604 33.105 72.6797 33.0187 72.2504 32.846C71.8257 32.6733 71.4617 32.4283 71.1584 32.111C70.8551 31.789 70.6217 31.4017 70.4584 30.949C70.2951 30.4963 70.2134 29.9877 70.2134 29.423C70.2134 28.8583 70.2951 28.3497 70.4584 27.897C70.6217 27.4443 70.8551 27.0593 71.1584 26.742C71.4617 26.4247 71.8257 26.1797 72.2504 26.007C72.6797 25.8343 73.1604 25.748 73.6924 25.748ZM73.6924 31.929C74.3364 31.929 74.8147 31.7143 75.1274 31.285C75.4447 30.851 75.6034 30.2327 75.6034 29.43C75.6034 28.6273 75.4447 28.009 75.1274 27.575C74.8147 27.1363 74.3364 26.917 73.6924 26.917C73.0391 26.917 72.5537 27.1363 72.2364 27.575C71.9191 28.009 71.7604 28.6273 71.7604 29.43C71.7604 30.2327 71.9191 30.851 72.2364 31.285C72.5537 31.7143 73.0391 31.929 73.6924 31.929ZM80.5564 22.64V33H79.0514V22.64H80.5564ZM86.6491 29.878C86.1124 29.8967 85.6597 29.941 85.2911 30.011C84.9224 30.0763 84.6237 30.1627 84.3951 30.27C84.1664 30.3727 84.0007 30.4963 83.8981 30.641C83.8001 30.7857 83.7511 30.9443 83.7511 31.117C83.7511 31.285 83.7767 31.4297 83.8281 31.551C83.8841 31.6677 83.9587 31.7657 84.0521 31.845C84.1501 31.9197 84.2621 31.9757 84.3881 32.013C84.5187 32.0457 84.6611 32.062 84.8151 32.062C85.2071 32.062 85.5431 31.9897 85.8231 31.845C86.1077 31.6957 86.3831 31.481 86.6491 31.201V29.878ZM82.6591 26.854C83.4664 26.1027 84.4277 25.727 85.5431 25.727C85.9537 25.727 86.3177 25.7947 86.6351 25.93C86.9571 26.0607 87.2254 26.2473 87.4401 26.49C87.6594 26.7327 87.8251 27.022 87.9371 27.358C88.0537 27.6893 88.1121 28.058 88.1121 28.464V33H87.4401C87.2954 33 87.1857 32.979 87.1111 32.937C87.0364 32.8903 86.9734 32.7993 86.9221 32.664L86.7751 32.083C86.5931 32.2463 86.4134 32.3933 86.2361 32.524C86.0587 32.65 85.8744 32.7573 85.6831 32.846C85.4964 32.9347 85.2934 33 85.0741 33.042C84.8594 33.0887 84.6214 33.112 84.3601 33.112C84.0707 33.112 83.8001 33.0723 83.5481 32.993C83.3007 32.9137 83.0861 32.7947 82.9041 32.636C82.7221 32.4727 82.5774 32.272 82.4701 32.034C82.3674 31.796 82.3161 31.516 82.3161 31.194C82.3161 30.9187 82.3884 30.6503 82.5331 30.389C82.6824 30.1277 82.9251 29.8943 83.2611 29.689C83.6017 29.479 84.0474 29.3063 84.5981 29.171C85.1534 29.0357 85.8371 28.9587 86.6491 28.94V28.464C86.6491 27.9507 86.5394 27.568 86.3201 27.316C86.1007 27.064 85.7787 26.938 85.3541 26.938C85.0647 26.938 84.8221 26.9753 84.6261 27.05C84.4301 27.12 84.2597 27.197 84.1151 27.281C83.9704 27.365 83.8421 27.4443 83.7301 27.519C83.6181 27.589 83.4991 27.624 83.3731 27.624C83.2704 27.624 83.1817 27.5983 83.1071 27.547C83.0371 27.491 82.9787 27.4233 82.9321 27.344L82.6591 26.854ZM91.7021 26.805C91.8561 26.6463 92.0148 26.504 92.1781 26.378C92.3461 26.2473 92.5234 26.1353 92.7101 26.042C92.8968 25.9487 93.0951 25.8763 93.3051 25.825C93.5151 25.7737 93.7438 25.748 93.9911 25.748C94.3831 25.748 94.7261 25.8133 95.0201 25.944C95.3188 26.0747 95.5684 26.259 95.7691 26.497C95.9744 26.735 96.1284 27.022 96.2311 27.358C96.3338 27.6893 96.3851 28.0557 96.3851 28.457V33H94.8871V28.457C94.8871 27.9763 94.7751 27.603 94.5511 27.337C94.3318 27.071 93.9958 26.938 93.5431 26.938C93.2071 26.938 92.8944 27.015 92.6051 27.169C92.3204 27.323 92.0521 27.533 91.8001 27.799V33H90.2951V25.86H91.2051C91.4104 25.86 91.5411 25.9557 91.5971 26.147L91.7021 26.805ZM102.378 29.878C101.841 29.8967 101.388 29.941 101.02 30.011C100.651 30.0763 100.352 30.1627 100.124 30.27C99.8951 30.3727 99.7294 30.4963 99.6267 30.641C99.5287 30.7857 99.4797 30.9443 99.4797 31.117C99.4797 31.285 99.5054 31.4297 99.5567 31.551C99.6127 31.6677 99.6874 31.7657 99.7807 31.845C99.8787 31.9197 99.9907 31.9757 100.117 32.013C100.247 32.0457 100.39 32.062 100.544 32.062C100.936 32.062 101.272 31.9897 101.552 31.845C101.836 31.6957 102.112 31.481 102.378 31.201V29.878ZM98.3877 26.854C99.1951 26.1027 100.156 25.727 101.272 25.727C101.682 25.727 102.046 25.7947 102.364 25.93C102.686 26.0607 102.954 26.2473 103.169 26.49C103.388 26.7327 103.554 27.022 103.666 27.358C103.782 27.6893 103.841 28.058 103.841 28.464V33H103.169C103.024 33 102.914 32.979 102.84 32.937C102.765 32.8903 102.702 32.7993 102.651 32.664L102.504 32.083C102.322 32.2463 102.142 32.3933 101.965 32.524C101.787 32.65 101.603 32.7573 101.412 32.846C101.225 32.9347 101.022 33 100.803 33.042C100.588 33.0887 100.35 33.112 100.089 33.112C99.7994 33.112 99.5287 33.0723 99.2767 32.993C99.0294 32.9137 98.8147 32.7947 98.6327 32.636C98.4507 32.4727 98.3061 32.272 98.1987 32.034C98.0961 31.796 98.0447 31.516 98.0447 31.194C98.0447 30.9187 98.1171 30.6503 98.2617 30.389C98.4111 30.1277 98.6537 29.8943 98.9897 29.689C99.3304 29.479 99.7761 29.3063 100.327 29.171C100.882 29.0357 101.566 28.9587 102.378 28.94V28.464C102.378 27.9507 102.268 27.568 102.049 27.316C101.829 27.064 101.507 26.938 101.083 26.938C100.793 26.938 100.551 26.9753 100.355 27.05C100.159 27.12 99.9884 27.197 99.8437 27.281C99.6991 27.365 99.5707 27.4443 99.4587 27.519C99.3467 27.589 99.2277 27.624 99.1017 27.624C98.9991 27.624 98.9104 27.5983 98.8357 27.547C98.7657 27.491 98.7074 27.4233 98.6607 27.344L98.3877 26.854Z" fill="white"/>
</svg>
