<svg width="10" height="10" viewBox="0 0 10 10" fill="none" xmlns="http://www.w3.org/2000/svg">
<rect width="10" height="10" fill="#CDCDCD"/>
<g clip-path="url(#clip0_0_1)">
<rect width="1512" height="874" transform="translate(-942 -346)" fill="black"/>
<g filter="url(#filter0_f_0_1)">
<rect x="-718.5" y="-189.5" width="1072" height="562" rx="24.5" stroke="#1F8BF4"/>
</g>
<rect x="-718.5" y="-189.5" width="1072" height="562" rx="24.5" fill="#050B14" stroke="#1F8BF4"/>
<rect x="-140.5" y="-27.5" width="384" height="39" rx="7.5" fill="#050911" stroke="white"/>
<rect x="-942" y="-346" width="1512" height="874" fill="black" fill-opacity="0.6"/>
<g filter="url(#filter1_f_0_1)">
<rect x="-466.5" y="-189.5" width="562" height="562" rx="24.5" stroke="#1F8BF4"/>
</g>
<rect x="-466.5" y="-189.5" width="562" height="562" rx="24.5" fill="black" stroke="#1F8BF4"/>
<rect x="-8.5" y="-4.5" width="73" height="19" rx="1.5" fill="#0F9416" fill-opacity="0.13" stroke="#0F9416"/>
<path d="M5 0C6.32608 0 7.59785 0.526784 8.53553 1.46447C9.47322 2.40215 10 3.67392 10 5C10 6.32608 9.47322 7.59785 8.53553 8.53553C7.59785 9.47322 6.32608 10 5 10C3.67392 10 2.40215 9.47322 1.46447 8.53553C0.526784 7.59785 0 6.32608 0 5C0 3.67392 0.526784 2.40215 1.46447 1.46447C2.40215 0.526784 3.67392 0 5 0ZM4.37714 5.98643L3.26643 4.875C3.22661 4.83518 3.17934 4.8036 3.12731 4.78205C3.07529 4.7605 3.01953 4.7494 2.96321 4.7494C2.9069 4.7494 2.85114 4.7605 2.79912 4.78205C2.74709 4.8036 2.69982 4.83518 2.66 4.875C2.57958 4.95542 2.5344 5.06449 2.5344 5.17821C2.5344 5.29194 2.57958 5.40101 2.66 5.48143L4.07429 6.89571C4.11399 6.93573 4.16123 6.9675 4.21327 6.98917C4.26531 7.01085 4.32113 7.02201 4.3775 7.02201C4.43387 7.02201 4.48969 7.01085 4.54173 6.98917C4.59377 6.9675 4.64101 6.93573 4.68071 6.89571L7.60929 3.96643C7.64964 3.92677 7.68174 3.87952 7.70374 3.8274C7.72573 3.77528 7.7372 3.71932 7.73746 3.66275C7.73772 3.60617 7.72678 3.55011 7.70527 3.49779C7.68376 3.44546 7.6521 3.39791 7.61212 3.35789C7.57214 3.31786 7.52463 3.28614 7.47233 3.26457C7.42003 3.243 7.36398 3.23199 7.3074 3.23219C7.25083 3.23238 7.19486 3.24378 7.14271 3.26571C7.09056 3.28765 7.04327 3.3197 7.00357 3.36L4.37714 5.98643Z" fill="#0F9416"/>
</g>
<defs>
<filter id="filter0_f_0_1" x="-731" y="-202" width="1097" height="587" filterUnits="userSpaceOnUse" color-interpolation-filters="sRGB">
<feFlood flood-opacity="0" result="BackgroundImageFix"/>
<feBlend mode="normal" in="SourceGraphic" in2="BackgroundImageFix" result="shape"/>
<feGaussianBlur stdDeviation="6" result="effect1_foregroundBlur_0_1"/>
</filter>
<filter id="filter1_f_0_1" x="-479" y="-202" width="587" height="587" filterUnits="userSpaceOnUse" color-interpolation-filters="sRGB">
<feFlood flood-opacity="0" result="BackgroundImageFix"/>
<feBlend mode="normal" in="SourceGraphic" in2="BackgroundImageFix" result="shape"/>
<feGaussianBlur stdDeviation="6" result="effect1_foregroundBlur_0_1"/>
</filter>
<clipPath id="clip0_0_1">
<rect width="1512" height="874" fill="white" transform="translate(-942 -346)"/>
</clipPath>
</defs>
</svg>
